<svg width="150" height="41" viewBox="0 0 150 41" fill="none" xmlns="http://www.w3.org/2000/svg">
<path d="M63.5851 18.6096H58.9651V16.3687H63.2701V14.6473H58.9651V12.6883H63.4801V10.9966H56.6101V20.331H63.5851V18.6096Z" fill="#1A1A18"/>
<path d="M78.4651 10.9966V20.3311H80.8051V16.5765H82.6801C84.8701 16.5765 85.8001 15.0628 85.8001 13.7568C85.8001 12.4806 84.8251 10.9817 82.6651 10.9817L78.4651 10.9966ZM80.8201 12.6884H81.6601C82.9201 12.6884 83.3851 12.9852 83.3851 13.7717C83.3851 14.4692 83.0101 14.855 81.9301 14.855H80.8351L80.8201 12.6884Z" fill="#1A1A18"/>
<path d="M87.9302 10.9966V20.331H90.2702V16.532H90.9452C92.2052 16.532 92.5802 18.3128 93.6002 20.331H96.2102C94.8752 17.5856 94.5902 16.4281 93.6152 15.968C94.6952 15.4783 95.2352 14.7215 95.2352 13.6826C95.2352 12.2877 94.0802 10.9966 92.1452 10.9966H87.9302ZM90.2852 12.6883H91.4702C92.3552 12.6883 92.8202 13.0445 92.8202 13.742C92.8202 14.5434 92.1752 14.8105 91.5302 14.8105H90.2852V12.6883Z" fill="#1A1A18"/>
<path d="M106.125 18.6096H101.52V16.3687H105.825V14.6473H101.52V12.6883H106.05V10.9966H99.1652V20.331H106.125V18.6096Z" fill="#1A1A18"/>
<path d="M115.95 11.5753C114.765 11.0708 113.805 10.863 112.755 10.863C110.565 10.863 109.155 11.9315 109.155 13.5491C109.155 16.9178 113.97 16.339 113.97 17.8676C113.97 18.4167 113.475 18.7283 112.59 18.7283C111.555 18.7283 110.715 18.4018 109.35 17.5262V19.5445C110.28 20.0342 111.105 20.4498 112.755 20.4498C114.855 20.4498 116.385 19.411 116.385 17.6301C116.385 14.3653 111.57 14.766 111.57 13.3562C111.57 12.8813 112.11 12.5993 112.95 12.5993C113.76 12.5993 114.57 12.8368 115.935 13.4304L115.95 11.5753Z" fill="#1A1A18"/>
<path d="M125.925 11.5753C124.74 11.0708 123.78 10.863 122.73 10.863C120.54 10.863 119.13 11.9315 119.13 13.5491C119.13 16.9178 123.945 16.339 123.945 17.8676C123.945 18.4167 123.45 18.7283 122.565 18.7283C121.53 18.7283 120.69 18.4018 119.325 17.5262V19.5445C120.255 20.0342 121.08 20.4498 122.73 20.4498C124.83 20.4498 126.36 19.411 126.36 17.6301C126.36 14.3653 121.545 14.766 121.545 13.3562C121.545 12.8813 122.085 12.5993 122.925 12.5993C123.735 12.5993 124.545 12.8368 125.91 13.4304V11.5753H125.925Z" fill="#1A1A18"/>
<path d="M139.62 18.4167H136.56C138.255 16.2945 139.125 14.6769 139.125 13.5194C139.125 11.8573 137.985 10.863 136.14 10.863C135.24 10.863 134.52 11.1004 133.5 11.7534V13.6975C134.25 12.9703 135.105 12.5251 135.765 12.5251C136.47 12.5251 137.025 13.1484 137.025 13.8607C137.025 14.5879 136.785 15.2705 136.005 16.4429C135.33 17.4669 134.37 18.847 133.38 20.0491V20.3162H139.62V18.4167Z" fill="#1A1A18"/>
<path d="M147.915 10.863H146.58L142.125 16.532V18.0308H145.8V20.3162H147.9V18.0308H148.545V16.532H147.9V10.863H147.915ZM145.8 13.9794H145.83V16.532H143.805L145.8 13.9794Z" fill="#1A1A18"/>
<path d="M71.1001 13.8756L69.2251 10.9966H66.5551L69.5701 15.4931L66.4501 20.331H69.0601L71.1001 17.081L73.1401 20.331H75.7651L72.6301 15.4931L75.6601 10.9966H72.9901L71.1001 13.8756Z" fill="#1A1A18"/>
<path d="M60.8101 25.8516C60.1501 25.5696 59.6401 25.4658 59.1301 25.4658C57.5851 25.4658 56.4751 26.5342 56.4751 28.0034C56.4751 29.0126 57.2851 30.4075 59.1001 30.4075C59.8501 30.4075 60.3751 30.2295 60.8701 29.992V29.25C60.3301 29.6062 59.7151 29.7842 59.1751 29.7842C58.0051 29.7842 57.2101 29.0422 57.2101 27.9441C57.2101 26.8904 58.0501 26.089 59.1451 26.089C59.7001 26.089 60.2251 26.2523 60.8251 26.5936V25.8516H60.8101ZM64.6501 25.4954H64.1551L62.0551 30.3333H62.7601L64.3801 26.4155L66.1051 30.3333H66.8101L64.6501 25.4954ZM68.3851 25.5251H67.6801L69.8101 30.3482C69.7801 30.6747 69.4351 30.8824 69.2551 30.8824C68.9701 30.8824 68.7601 30.8231 68.6101 30.6598V31.2831C68.7751 31.387 68.9851 31.4612 69.2101 31.4612C69.7651 31.4612 70.1251 31.1347 70.4251 30.363L72.2401 25.54H71.5501L70.1251 29.5616L68.3851 25.5251ZM76.5601 27.4692C76.0501 27.4692 75.7051 27.3356 75.4201 26.6233C75.0751 25.7774 74.7151 25.5251 74.0251 25.5251H73.9051V26.1484C74.5351 26.1484 74.6551 26.371 74.8501 26.9498C74.9851 27.3059 75.3001 27.6621 75.5851 27.7957C75.1951 27.9737 74.9401 28.1518 74.6401 28.597L73.4701 30.3482H74.2801L75.2251 28.8938C75.4951 28.4931 75.9751 28.0628 76.5451 28.0628V30.3482H77.2501V28.0479C77.7901 28.0479 78.3001 28.4635 78.5701 28.879L79.5151 30.3333H80.3251L79.1551 28.5822C78.8551 28.137 78.6151 27.9589 78.2101 27.7808C78.5101 27.6473 78.8101 27.2763 78.9451 26.9349C79.1401 26.371 79.2751 26.1336 79.8901 26.1336V25.5251H79.8001C79.1101 25.5251 78.7351 25.7626 78.4051 26.6233C78.1201 27.3356 77.7751 27.4692 77.2651 27.4692V25.5103H76.5601V27.4692ZM82.0351 30.3333H83.7001C84.7351 30.3333 85.4551 29.7991 85.4551 28.8938C85.4551 27.9886 84.7351 27.4395 83.7001 27.4395H82.7101V26.1336H85.1101V25.5103H82.0051V30.3333H82.0351ZM82.7401 28.0776H83.6701C84.3901 28.0776 84.7501 28.3744 84.7501 28.9087C84.7501 29.3539 84.3901 29.7397 83.8051 29.7397H82.7401V28.0776ZM89.1601 25.4954H88.6651L86.5651 30.3333H87.2701L87.8701 28.9235H89.9401L90.5851 30.3333H91.2901L89.1601 25.4954ZM88.9051 26.5491L89.7001 28.3002H88.1701L88.9051 26.5491ZM99.4651 29.71H98.7601L97.0801 25.4806H96.5851L94.9801 29.71H94.2751V31.2237H94.9801V30.3333H98.7751V31.2237H99.4801V29.71H99.4651ZM96.8251 26.5046L98.0551 29.7249H95.6701L96.8251 26.5046ZM100.74 27.9292C100.74 29.2352 101.745 30.4075 103.35 30.4075C104.985 30.4075 105.99 29.2352 105.99 27.9292C105.99 26.5788 104.985 25.4509 103.38 25.4509C101.775 25.4658 100.74 26.5936 100.74 27.9292ZM101.46 27.9292C101.46 26.8756 102.27 26.089 103.35 26.089C104.445 26.089 105.255 26.8756 105.255 27.9292C105.255 28.9829 104.445 29.7694 103.35 29.7694C102.27 29.7694 101.46 28.9829 101.46 27.9292ZM111.87 25.8516C111.21 25.5696 110.7 25.4658 110.19 25.4658C108.645 25.4658 107.535 26.5342 107.535 28.0034C107.535 29.0126 108.345 30.4075 110.16 30.4075C110.91 30.4075 111.435 30.2295 111.93 29.992V29.25C111.39 29.6062 110.775 29.7842 110.22 29.7842C109.05 29.7842 108.255 29.0422 108.255 27.9441C108.255 26.8904 109.095 26.089 110.19 26.089C110.745 26.089 111.27 26.2523 111.87 26.5936V25.8516ZM117.3 25.5251H113.235V26.1484H114.915V30.3333H115.62V26.1336H117.3V25.5251ZM120.885 25.4954H120.39L118.29 30.3333H118.995L119.595 28.9235H121.665L122.31 30.3333H123.015L120.885 25.4954ZM120.645 26.5491L121.44 28.3002H119.91L120.645 26.5491ZM124.5 30.3333H126.15C127.365 30.3333 127.83 29.6358 127.83 29.0571C127.83 28.4041 127.38 27.9292 126.66 27.8105V27.7957C127.17 27.5879 127.41 27.2614 127.41 26.7568C127.41 26.1632 126.96 25.5251 125.91 25.5251H124.5V30.3333ZM125.19 26.1484H125.835C126.48 26.1484 126.69 26.46 126.69 26.8162C126.69 27.3356 126.36 27.5731 125.655 27.5731H125.19V26.1484ZM125.19 28.2112H126.045C126.78 28.2112 127.125 28.5228 127.125 28.9532C127.125 29.3094 126.9 29.71 126.075 29.71H125.19V28.2112ZM129.39 25.5251V30.3333H130.095V28.0479H130.29C130.755 28.0479 131.235 28.3447 131.655 29.0422L132.405 30.3482H133.215L132.36 28.8938C132.015 28.3002 131.64 27.9589 131.295 27.7957C131.565 27.6621 131.835 27.3059 131.97 26.9498C132.165 26.3858 132.3 26.1484 132.915 26.1484V25.5251H132.795C132.105 25.5251 131.73 25.7626 131.4 26.6233C131.115 27.3356 130.77 27.4692 130.26 27.4692H130.08V25.5103L129.39 25.5251ZM139.14 25.5251H138.795L135.705 29.1906V25.5251H135V30.4075H135.33L138.42 26.8014V30.3185H139.125L139.14 25.5251Z" fill="#1A1A18"/>
<path d="M26.775 3.23515C36.42 3.23515 44.25 10.9817 44.25 20.524C44.25 30.0662 36.42 37.8128 26.775 37.8128C17.13 37.8128 9.30005 30.0662 9.30005 20.524C9.31505 10.9669 17.13 3.23515 26.775 3.23515Z" fill="#FFEC00"/>
<path d="M26.7751 30.4817C12.7051 30.4817 1.32007 26.1929 1.32007 23.6552C1.32007 21.1027 7.29007 19.5 15.9001 17.8676C15.8851 18.3425 15.8851 18.8025 15.8851 19.2774C16.2451 21.1472 20.9551 22.1415 26.7901 22.1415C32.6251 22.1415 37.3351 21.0879 37.6951 19.2774C37.6951 18.8025 37.6951 18.3425 37.6801 17.8676C46.2751 19.4851 52.2601 21.1176 52.2601 23.6552C52.2451 26.1929 40.8451 30.4817 26.7751 30.4817Z" fill="#8CC798"/>
<path d="M36.675 29.7694C34.41 31.8322 30.825 33.1678 26.775 33.1678C22.74 33.1678 19.14 31.8322 16.89 29.7694C19.92 30.2146 23.28 30.4817 26.775 30.4817C30.285 30.4817 33.645 30.2146 36.675 29.7694Z" fill="#8CC798"/>
<path d="M26.55 33.1678C22.605 33.1233 19.11 31.8025 16.905 29.7694C18.495 29.992 20.175 30.1701 21.915 30.3037C22.23 30.7489 23.49 32.2477 26.55 33.1678Z" fill="#4FA26C"/>
<path d="M26.79 7.8653C21.105 7.8653 16.305 12.2431 15.9 17.8676V18.4018C16.215 19.9897 20.97 21.266 26.805 21.266C32.64 21.266 37.395 20.0194 37.71 18.4018L37.695 17.8824C37.275 12.258 32.475 7.8653 26.79 7.8653Z" fill="#009DE2"/>
<path d="M34.365 20.4201L34.47 20.4052C35.385 20.1678 37.485 19.5 37.71 18.4167L37.695 17.8973C37.425 14.2169 35.235 10.8779 31.875 9.12671C31.71 9.05251 31.605 8.97831 31.38 8.88927C31.545 9.02283 34.38 11.3082 34.38 16.7546V20.4201H34.365Z" fill="#A0D8F7"/>
<path d="M15.9 18.4167V19.2922C16.26 21.1621 20.97 22.1564 26.805 22.1564C32.64 22.1564 37.35 21.1027 37.71 19.2922V18.4167C37.395 20.0046 32.64 21.2808 26.805 21.2808C20.97 21.2808 16.2 20.0046 15.9 18.4167Z" fill="#FFEC00"/>
<path d="M26.79 24.5457C27.765 24.5457 28.545 25.3322 28.545 26.282V26.2968C28.05 26.5342 27.45 26.6678 26.79 26.6678C26.13 26.6678 25.53 26.5342 25.035 26.2968V26.282C25.035 25.3322 25.83 24.5457 26.79 24.5457Z" fill="#FFEC00"/>
<path d="M25.035 26.3116V26.2671C25.05 25.5103 25.575 24.8721 26.265 24.6495L26.31 24.6347L26.355 24.6199L26.385 24.605H26.4L26.43 24.5902H26.445H26.46L26.505 24.5753L26.535 24.5605H26.55H26.58H26.595H26.625H26.64H26.67H26.7C26.685 24.5753 25.935 25.0057 25.8 25.8071C25.755 26.0742 25.755 26.3265 25.755 26.5491C25.485 26.4897 25.23 26.4007 25.035 26.3116Z" fill="#FFCB00"/>
<path d="M28.545 26.3116V26.8162C28.05 27.0537 27.45 27.1872 26.79 27.1872C26.13 27.1872 25.53 27.0537 25.035 26.8162V26.3116C25.53 26.5491 26.13 26.6826 26.79 26.6826C27.435 26.6826 28.065 26.5342 28.545 26.3116Z" fill="#EE7C00"/>
<path d="M16.8752 23.6552C17.8502 23.6552 18.6302 24.4418 18.6302 25.3915V25.4064C18.1352 25.6438 17.5352 25.7774 16.8752 25.7774C16.2152 25.7774 15.6152 25.6438 15.1202 25.4064V25.3915C15.1052 24.4418 15.9152 23.6552 16.8752 23.6552Z" fill="#FFEC00"/>
<path d="M15.1051 25.4064V25.3619C15.1201 24.605 15.6451 23.9669 16.3351 23.7443L16.3801 23.7294L16.4251 23.7146L16.4551 23.6998H16.4701L16.5001 23.6849H16.5151H16.5301L16.5751 23.6701H16.6051H16.6201H16.6501H16.6651H16.6951H16.7101H16.7401H16.7701C16.7551 23.6849 16.0051 24.1153 15.8701 24.9167C15.8251 25.1838 15.8251 25.4361 15.8251 25.6587C15.5701 25.5845 15.3151 25.5103 15.1051 25.4064Z" fill="#FFCB00"/>
<path d="M18.6301 25.4064V25.911C18.1351 26.1484 17.5351 26.282 16.8751 26.282C16.2151 26.282 15.6151 26.1484 15.1201 25.911V25.4064C15.6151 25.6438 16.2151 25.7774 16.8751 25.7774C17.5201 25.7922 18.1351 25.6438 18.6301 25.4064Z" fill="#EE7C00"/>
<path d="M36.1951 23.6552C37.1701 23.6552 37.9501 24.4418 37.9501 25.3915V25.4064C37.4551 25.6438 36.8551 25.7774 36.1951 25.7774C35.5351 25.7774 34.9351 25.6438 34.4401 25.4064V25.3915C34.4401 24.4418 35.2351 23.6552 36.1951 23.6552Z" fill="#FFEC00"/>
<path d="M34.4401 25.4064V25.3619C34.4551 24.605 34.9801 23.9669 35.6701 23.7443L35.7151 23.7294L35.7601 23.7146L35.7901 23.6998H35.8051L35.8351 23.6849H35.8501H35.8651L35.9101 23.6701H35.9401H35.9551H35.9851H36.0001H36.0301H36.0451H36.0751H36.1051C36.0901 23.6849 35.3401 24.1153 35.2051 24.9167C35.1601 25.1838 35.1601 25.4361 35.1601 25.6587C34.8901 25.5845 34.6651 25.5103 34.4401 25.4064Z" fill="#FFCB00"/>
<path d="M37.9501 25.4064V25.911C37.4551 26.1484 36.8551 26.282 36.1951 26.282C35.5351 26.282 34.9351 26.1484 34.4401 25.911V25.4064C34.9351 25.6438 35.5351 25.7774 36.1951 25.7774C36.8551 25.7922 37.4701 25.6438 37.9501 25.4064Z" fill="#EE7C00"/>
<path d="M42.9 20.9098C43.875 20.9098 44.655 21.6963 44.655 22.6461V22.6609C44.16 22.8984 43.56 23.032 42.9 23.032C42.24 23.032 41.64 22.8984 41.145 22.6609V22.6461C41.145 21.6963 41.925 20.9098 42.9 20.9098Z" fill="#FFEC00"/>
<path d="M41.145 22.661V22.6164C41.16 21.8596 41.685 21.2215 42.375 20.9988L42.42 20.984L42.465 20.9692L42.495 20.9543H42.51L42.54 20.9395H42.555L42.6 20.9246L42.63 20.9098H42.645H42.675H42.69H42.72H42.735H42.765H42.795C42.78 20.9246 42.03 21.355 41.895 22.1564C41.85 22.4235 41.85 22.6758 41.85 22.8984C41.58 22.839 41.355 22.7648 41.145 22.661Z" fill="#FFCB00"/>
<path d="M44.655 22.6609V23.1655C44.16 23.403 43.56 23.5365 42.9 23.5365C42.24 23.5365 41.64 23.403 41.145 23.1655V22.6609C41.64 22.8984 42.24 23.032 42.9 23.032C43.56 23.0468 44.16 22.8984 44.655 22.6609Z" fill="#EE7C00"/>
<path d="M3.25504 21.355C5.34004 20.1975 9.00004 19.2477 13.62 18.3128C14.385 18.1644 15.165 18.0011 15.915 17.8676V17.9121C15.9 18.3721 15.9 18.8322 15.9 19.2922C16.215 20.9098 19.845 21.8744 24.615 22.0822C25.14 22.1119 25.68 22.1267 26.22 22.1415C19.995 22.1712 15.315 22.3493 4.95004 25.3619C2.68504 24.1598 1.81504 22.7797 3.25504 21.355Z" fill="#4FA26C"/>
<path d="M26.7751 30.4817C13.8451 30.4817 3.15005 26.8607 1.53005 24.3082C1.39505 24.1004 1.35005 23.9075 1.32005 23.7591C1.32005 23.7294 1.30505 23.6998 1.30505 23.6849C1.30505 22.8242 1.99505 22.0673 3.22505 21.3995C-0.974946 25.5548 14.4001 29.2648 26.7601 29.2648C39.1201 29.2648 54.4801 25.5251 50.2951 21.3995C51.5251 22.0822 52.2151 22.839 52.2151 23.6849C52.2151 23.7146 52.2151 23.7443 52.2001 23.7591C52.1851 23.9224 52.1251 24.1004 51.9901 24.3082C50.4001 26.8607 39.7201 30.4817 26.7751 30.4817Z" fill="#006126"/>
<path d="M10.3651 20.9098C11.3401 20.9098 12.1201 21.6963 12.1201 22.6461V22.6609C11.6251 22.8984 11.0251 23.032 10.3651 23.032C9.70511 23.032 9.10511 22.8984 8.61011 22.6609V22.6461C8.61011 21.6963 9.39011 20.9098 10.3651 20.9098Z" fill="#FFEC00"/>
<path d="M8.61011 22.661V22.6164C8.62511 21.8596 9.15011 21.2215 9.84011 20.9988L9.88511 20.984L9.93011 20.9692L9.96011 20.9543H9.97511L10.0051 20.9395H10.0201H10.0501L10.0951 20.9246L10.1251 20.9098H10.1401H10.1701H10.2001H10.2301H10.2451H10.2751H10.3051C10.2901 20.9246 9.54011 21.355 9.40511 22.1564C9.36011 22.4235 9.36011 22.6758 9.36011 22.8984C9.04511 22.839 8.82011 22.7648 8.61011 22.661Z" fill="#FFCB00"/>
<path d="M12.1201 22.6609V23.1655C11.6251 23.403 11.0251 23.5365 10.3651 23.5365C9.70511 23.5365 9.10511 23.403 8.61011 23.1655V22.6609C9.10511 22.8984 9.70511 23.032 10.3651 23.032C11.0251 23.0468 11.6251 22.8984 12.1201 22.6609Z" fill="#EE7C00"/>
</svg>
